<svg version="1.1" viewBox="0.0 0.0 960.0 720.0" fill="none" stroke="none" stroke-linecap="square" stroke-miterlimit="10" xmlns:xlink="http://www.w3.org/1999/xlink" xmlns="http://www.w3.org/2000/svg"><clipPath id="p.0"><path d="m0 0l960.0 0l0 720.0l-960.0 0l0 -720.0z" clip-rule="nonzero"/></clipPath><g clip-path="url(#p.0)"><path fill="#000000" fill-opacity="0.0" d="m0 0l960.0 0l0 720.0l-960.0 0z" fill-rule="evenodd"/><path fill="#000000" d="m669.19946 727.0836l203.51343 -361.6347l203.51343 361.6347z" fill-rule="evenodd"/><path stroke="#ffffff" stroke-width="1.0" stroke-linejoin="round" stroke-linecap="butt" d="m669.19946 727.0836l203.51343 -361.6347l203.51343 361.6347z" fill-rule="evenodd"/><path fill="#000000" d="m-137.7611 727.09875l241.85445 -454.20636l241.37122 454.20636z" fill-rule="evenodd"/><path stroke="#ffffff" stroke-width="1.0" stroke-linejoin="round" stroke-linecap="butt" d="m-137.7611 727.09875l241.85445 -454.20636l241.37122 454.20636z" fill-rule="evenodd"/><path fill="#000000" d="m226.7874 719.09937l244.60222 -501.08887l289.82547 501.08887z" fill-rule="evenodd"/><path stroke="#ffffff" stroke-width="1.0" stroke-linejoin="round" stroke-linecap="butt" d="m226.7874 719.09937l244.60222 -501.08887l289.82547 501.08887z" fill-rule="evenodd"/><path fill="#000000" d="m459.88452 719.1175l312.4804 -434.38785l155.34668 434.38785z" fill-rule="evenodd"/><path stroke="#ffffff" stroke-width="1.0" stroke-linejoin="round" stroke-linecap="butt" d="m459.88452 719.1175l312.4804 -434.38785l155.34668 434.38785z" fill-rule="evenodd"/><path fill="#000000" d="m88.75176 761.9591l241.64868 -420.87714l194.86334 420.87714z" fill-rule="evenodd"/><path stroke="#ffffff" stroke-width="1.0" stroke-linejoin="round" stroke-linecap="butt" d="m88.75176 761.9591l241.64868 -420.87714l194.86334 420.87714z" fill-rule="evenodd"/></g></svg>