<svg version="1.1" viewBox="0.0 0.0 975.0682414698163 722.7585301837271" fill="none" stroke="none" stroke-linecap="square" stroke-miterlimit="10" xmlns:xlink="http://www.w3.org/1999/xlink" xmlns="http://www.w3.org/2000/svg"><clipPath id="p.0"><path d="m0 0l975.06824 0l0 722.75854l-975.06824 0l0 -722.75854z" clip-rule="nonzero"/></clipPath><g clip-path="url(#p.0)"><path fill="#000000" fill-opacity="0.0" d="m0 0l975.06824 0l0 722.75854l-975.06824 0z" fill-rule="evenodd"/><path fill="#000000" d="m116.7874 662.1609l235.84944 -422.581l192.74756 443.44836z" fill-rule="evenodd"/><path fill="#265393" d="m533.6007 681.31067l-180.76868 -441.20175l297.91107 408.4208z" fill-rule="evenodd"/><path fill="#284178" d="m421.792 805.2786l-226.56749 -448.26086l-169.97244 472.8783z" fill-rule="evenodd"/><path fill="#000000" d="m36.121536 827.9594l158.90471 -470.0169l-268.03384 435.6808z" fill-rule="evenodd"/><path fill="#000000" d="m19.863968 695.72156l0.4254589 -1.2584839l9.89669 3.1138916l-0.42546082 1.2584229l-9.896688 -3.1138306z" fill-rule="nonzero"/><path fill="#265393" d="m508.29645 716.9047l225.02167 -395.20078l184.9762 415.28183z" fill-rule="evenodd"/><path fill="#08244c" d="m906.9162 735.38275l-173.22113 -413.0432l285.22406 382.58386z" fill-rule="evenodd"/><path fill="#446dc8" d="m650.21875 736.67163l200.31769 -309.23767l169.06445 327.44366z" fill-rule="evenodd"/><path fill="#1a2b4f" d="m1009.44434 753.5806l-158.23102 -324.85303l258.92242 301.63452z" fill-rule="evenodd"/><path fill="#1a2b4f" d="m915.4327 743.5898l-382.7074 -611.0604l-303.97925 653.3999z" fill-rule="evenodd"/><path fill="#1a1919" d="m247.40257 783.135l285.21423 -650.1426l-473.25055 605.5227z" fill-rule="evenodd"/></g></svg>